<svg xmlns="http://www.w3.org/2000/svg" xmlns:xlink="http://www.w3.org/1999/xlink" width="1000" zoomAndPan="magnify" viewBox="0 0 750 195.000001" height="260" preserveAspectRatio="xMidYMid meet" version="1.0"><defs><g/><clipPath id="3a8163c665"><path d="M 21 130 L 181 130 L 181 182.457031 L 21 182.457031 Z M 21 130 " clip-rule="nonzero"/></clipPath><clipPath id="8a43c5cd2d"><path d="M 9.332031 11.582031 L 192.890625 11.582031 L 192.890625 113 L 9.332031 113 Z M 9.332031 11.582031 " clip-rule="nonzero"/></clipPath></defs><g clip-path="url(#3a8163c665)"><path fill="#1f93a9" d="M 180.378906 130.742188 L 101.996094 158.96875 L 21.691406 131.746094 L 21.691406 155.34375 L 101.035156 182.40625 C 101.035156 182.40625 170.355469 157.964844 172.515625 157.074219 C 174.675781 156.191406 179.070312 152.488281 179.300781 151.101562 C 178.144531 150.636719 173.054688 150.25 172.746094 145.855469 C 172.4375 141.460938 172.746094 135.371094 172.746094 135.371094 Z M 180.378906 130.742188 " fill-opacity="1" fill-rule="nonzero"/></g><path fill="#1f93a9" d="M 172.515625 127.390625 C 174.675781 126.503906 179.070312 122.800781 179.300781 121.414062 C 178.144531 120.949219 173.054688 120.566406 172.746094 116.171875 C 172.4375 111.777344 172.746094 105.683594 172.746094 105.683594 L 180.378906 101.058594 L 101.996094 129.28125 L 21.691406 102.0625 L 21.691406 125.660156 L 101.035156 152.722656 C 101.035156 152.722656 170.355469 128.277344 172.515625 127.390625 Z M 172.515625 127.390625 " fill-opacity="1" fill-rule="nonzero"/><g clip-path="url(#8a43c5cd2d)"><path fill="#1f93a9" d="M 174.101562 66.726562 L 174.101562 49.257812 L 192.738281 42.894531 L 101.035156 11.585938 L 9.332031 42.894531 L 59.421875 59.996094 L 59.421875 94.375 L 59.765625 94.851562 C 63.902344 100.609375 70.101562 105.3125 77.6875 108.457031 C 84.738281 111.378906 92.855469 112.925781 101.152344 112.925781 C 109.453125 112.925781 117.570312 111.378906 124.621094 108.457031 C 132.207031 105.3125 138.402344 100.609375 142.542969 94.851562 L 142.882812 94.375 L 142.882812 59.914062 L 170.453125 50.503906 L 170.453125 66.621094 C 167.730469 67.726562 165.777344 71.441406 165.777344 75.972656 C 165.777344 81.40625 168.578125 85.664062 172.15625 85.664062 C 175.734375 85.664062 178.535156 81.40625 178.535156 75.972656 C 178.53125 71.578125 176.695312 67.949219 174.101562 66.726562 Z M 101.035156 15.445312 L 181.4375 42.894531 L 172.042969 46.101562 L 112.914062 41.191406 C 111.894531 38.074219 108.125 35.824219 103.496094 35.824219 C 98.0625 35.824219 93.804688 38.929688 93.804688 42.894531 C 93.804688 46.859375 98.0625 49.964844 103.496094 49.964844 C 107.996094 49.964844 111.691406 47.832031 112.824219 44.847656 L 163.414062 49.046875 L 101.035156 70.34375 L 20.632812 42.894531 Z M 109.539062 42.894531 C 109.539062 44.515625 107.058594 46.316406 103.5 46.316406 C 99.941406 46.316406 97.460938 44.515625 97.460938 42.894531 C 97.460938 41.277344 99.941406 39.472656 103.5 39.472656 C 107.058594 39.472656 109.539062 41.277344 109.539062 42.894531 Z M 139.230469 93.191406 C 135.492188 98.183594 129.96875 102.289062 123.21875 105.085938 C 116.605469 107.824219 108.976562 109.273438 101.152344 109.273438 C 93.328125 109.273438 85.695312 107.824219 79.082031 105.085938 C 72.335938 102.289062 66.8125 98.183594 63.074219 93.191406 L 63.074219 61.242188 L 101.035156 74.203125 L 139.230469 61.160156 Z M 172.152344 82.011719 C 171.042969 82.011719 169.425781 79.660156 169.425781 75.972656 C 169.425781 72.285156 171.042969 69.933594 172.152344 69.933594 C 173.265625 69.933594 174.882812 72.285156 174.882812 75.972656 C 174.882812 79.660156 173.265625 82.011719 172.152344 82.011719 Z M 172.152344 82.011719 " fill-opacity="1" fill-rule="nonzero"/></g><g fill="#757575" fill-opacity="1"><g transform="translate(199.696684, 100.648336)"><g><path d="M 87.875 -67.5 L 102.921875 -67.5 L 83.875 0 L 65.96875 0 L 52.078125 -45.40625 L 38.171875 0 L 20.46875 0 L 1.421875 -67.5 L 16.46875 -67.5 L 29.796875 -16.46875 L 45.125 -67.5 L 59.03125 -67.5 L 74.453125 -16.09375 Z M 87.875 -67.5 "/></g></g></g><g fill="#757575" fill-opacity="1"><g transform="translate(304.690497, 100.648336)"><g><path d="M 45.984375 -67.5 L 74.15625 0 L 58.546875 0 L 52.453125 -14.46875 L 23.796875 -14.46875 L 17.796875 0 L 2.09375 0 L 30.28125 -67.5 Z M 47.03125 -27.609375 L 38.171875 -48.84375 L 29.328125 -27.609375 Z M 47.03125 -27.609375 "/></g></g></g><g fill="#757575" fill-opacity="1"><g transform="translate(381.413099, 100.648336)"><g><path d="M 50.640625 -67.5 L 65.03125 -67.5 L 65.03125 0 L 51.3125 0 L 18.84375 -44.078125 L 18.84375 0 L 4.46875 0 L 4.46875 -67.5 L 18 -67.5 L 50.640625 -23.140625 Z M 50.640625 -67.5 "/></g></g></g><g fill="#757575" fill-opacity="1"><g transform="translate(451.377247, 100.648336)"><g><path d="M 45.984375 -67.5 L 74.15625 0 L 58.546875 0 L 52.453125 -14.46875 L 23.796875 -14.46875 L 17.796875 0 L 2.09375 0 L 30.28125 -67.5 Z M 47.03125 -27.609375 L 38.171875 -48.84375 L 29.328125 -27.609375 Z M 47.03125 -27.609375 "/></g></g></g><g fill="#757575" fill-opacity="1"><g transform="translate(528.099861, 100.648336)"><g><path d="M 2.1875 -67.5 L 51.03125 -67.5 L 51.03125 -54.359375 L 33.796875 -54.359375 L 33.796875 0 L 19.421875 0 L 19.421875 -54.359375 L 2.1875 -54.359375 Z M 2.1875 -67.5 "/></g></g></g><g fill="#757575" fill-opacity="1"><g transform="translate(581.78666, 100.648336)"><g><path d="M 4.5625 -67.5 L 46.75 -67.5 L 46.75 -54.359375 L 19.046875 -54.359375 L 19.046875 -42.171875 L 43.40625 -42.171875 L 43.40625 -29.03125 L 19.046875 -29.03125 L 19.046875 -13.046875 L 46.75 -13.046875 L 46.75 0 L 4.5625 0 Z M 4.5625 -67.5 "/></g></g></g><g fill="#757575" fill-opacity="1"><g transform="translate(633.569692, 100.648336)"><g><path d="M 47.40625 -34.75 C 50.070312 -33.164062 52.101562 -31.132812 53.5 -28.65625 C 54.894531 -26.175781 55.59375 -23.320312 55.59375 -20.09375 C 55.59375 -17.039062 54.863281 -14.195312 53.40625 -11.5625 C 51.945312 -8.925781 49.882812 -6.59375 47.21875 -4.5625 C 44.8125 -2.726562 42.066406 -1.316406 38.984375 -0.328125 C 35.910156 0.648438 32.660156 1.171875 29.234375 1.234375 C 25.804688 1.234375 22.535156 0.757812 19.421875 -0.1875 C 16.304688 -1.144531 13.546875 -2.570312 11.140625 -4.46875 C 7.523438 -7.195312 5.050781 -10.5 3.71875 -14.375 L 17.046875 -20.5625 C 17.046875 -19.925781 17.265625 -19.128906 17.703125 -18.171875 C 18.148438 -17.222656 18.847656 -16.304688 19.796875 -15.421875 C 20.753906 -14.535156 21.992188 -13.773438 23.515625 -13.140625 C 25.035156 -12.503906 26.90625 -12.1875 29.125 -12.1875 C 30.90625 -12.1875 32.476562 -12.40625 33.84375 -12.84375 C 35.207031 -13.289062 36.347656 -13.847656 37.265625 -14.515625 C 38.191406 -15.179688 38.890625 -15.941406 39.359375 -16.796875 C 39.835938 -17.660156 40.078125 -18.535156 40.078125 -19.421875 C 40.078125 -20.429688 39.742188 -21.378906 39.078125 -22.265625 C 38.410156 -23.160156 37.378906 -23.863281 35.984375 -24.375 C 33.441406 -25.257812 30.757812 -26.003906 27.9375 -26.609375 C 25.113281 -27.210938 22.367188 -27.972656 19.703125 -28.890625 C 17.035156 -29.816406 14.5625 -31.039062 12.28125 -32.5625 C 10 -34.082031 8.191406 -36.207031 6.859375 -38.9375 C 5.648438 -41.351562 5.046875 -43.925781 5.046875 -46.65625 C 5.046875 -49.695312 5.757812 -52.644531 7.1875 -55.5 C 8.613281 -58.351562 10.566406 -60.765625 13.046875 -62.734375 C 15.390625 -64.578125 18.019531 -65.988281 20.9375 -66.96875 C 23.863281 -67.957031 26.941406 -68.453125 30.171875 -68.453125 C 33.410156 -68.453125 36.503906 -67.972656 39.453125 -67.015625 C 42.410156 -66.066406 45.0625 -64.671875 47.40625 -62.828125 C 49.695312 -61.117188 51.507812 -59.125 52.84375 -56.84375 L 41.984375 -49.40625 C 40.648438 -51.25 38.984375 -52.722656 36.984375 -53.828125 C 34.984375 -54.941406 32.75 -55.5 30.28125 -55.5 C 26.851562 -55.5 24.203125 -54.738281 22.328125 -53.21875 C 20.453125 -51.695312 19.515625 -49.695312 19.515625 -47.21875 C 19.515625 -46.070312 20.035156 -45.054688 21.078125 -44.171875 C 22.128906 -43.285156 23.492188 -42.492188 25.171875 -41.796875 C 26.859375 -41.097656 28.75 -40.476562 30.84375 -39.9375 C 32.9375 -39.394531 35.015625 -38.851562 37.078125 -38.3125 C 39.140625 -37.78125 41.09375 -37.226562 42.9375 -36.65625 C 44.78125 -36.082031 46.269531 -35.445312 47.40625 -34.75 Z M 47.40625 -34.75 "/></g></g></g><g fill="#757575" fill-opacity="1"><g transform="translate(692.682299, 100.648336)"><g><path d="M 2.1875 -67.5 L 51.03125 -67.5 L 51.03125 -54.359375 L 33.796875 -54.359375 L 33.796875 0 L 19.421875 0 L 19.421875 -54.359375 L 2.1875 -54.359375 Z M 2.1875 -67.5 "/></g></g></g><g fill="#1f93a9" fill-opacity="1"><g transform="translate(269.05074, 168.953825)"><g><path d="M 13.734375 0 L 10.15625 0 L 10.15625 -27.671875 L 0.375 -27.671875 L 0.375 -30.859375 L 23.515625 -30.859375 L 23.515625 -27.671875 L 13.734375 -27.671875 Z M 13.734375 0 "/></g></g></g><g fill="#1f93a9" fill-opacity="1"><g transform="translate(299.095729, 168.953825)"><g><path d="M 21.4375 0 L 4.234375 0 L 4.234375 -30.859375 L 21.4375 -30.859375 L 21.4375 -27.671875 L 7.828125 -27.671875 L 7.828125 -17.71875 L 20.625 -17.71875 L 20.625 -14.5625 L 7.828125 -14.5625 L 7.828125 -3.203125 L 21.4375 -3.203125 Z M 21.4375 0 "/></g></g></g><g fill="#1f93a9" fill-opacity="1"><g transform="translate(329.267318, 168.953825)"><g><path d="M 21.65625 -8.203125 C 21.65625 -5.492188 20.671875 -3.378906 18.703125 -1.859375 C 16.734375 -0.335938 14.054688 0.421875 10.671875 0.421875 C 7.015625 0.421875 4.203125 -0.046875 2.234375 -0.984375 L 2.234375 -4.453125 C 3.503906 -3.921875 4.882812 -3.5 6.375 -3.1875 C 7.863281 -2.875 9.34375 -2.71875 10.8125 -2.71875 C 13.195312 -2.71875 14.992188 -3.171875 16.203125 -4.078125 C 17.410156 -4.984375 18.015625 -6.25 18.015625 -7.875 C 18.015625 -8.9375 17.800781 -9.804688 17.375 -10.484375 C 16.945312 -11.171875 16.226562 -11.800781 15.21875 -12.375 C 14.21875 -12.957031 12.691406 -13.613281 10.640625 -14.34375 C 7.765625 -15.375 5.710938 -16.59375 4.484375 -18 C 3.253906 -19.40625 2.640625 -21.242188 2.640625 -23.515625 C 2.640625 -25.890625 3.53125 -27.78125 5.3125 -29.1875 C 7.101562 -30.59375 9.46875 -31.296875 12.40625 -31.296875 C 15.476562 -31.296875 18.300781 -30.734375 20.875 -29.609375 L 19.75 -26.484375 C 17.207031 -27.554688 14.734375 -28.09375 12.328125 -28.09375 C 10.421875 -28.09375 8.929688 -27.679688 7.859375 -26.859375 C 6.796875 -26.046875 6.265625 -24.914062 6.265625 -23.46875 C 6.265625 -22.394531 6.460938 -21.515625 6.859375 -20.828125 C 7.253906 -20.148438 7.914062 -19.523438 8.84375 -18.953125 C 9.78125 -18.390625 11.210938 -17.765625 13.140625 -17.078125 C 16.378906 -15.921875 18.609375 -14.679688 19.828125 -13.359375 C 21.046875 -12.035156 21.65625 -10.316406 21.65625 -8.203125 Z M 21.65625 -8.203125 "/></g></g></g><g fill="#1f93a9" fill-opacity="1"><g transform="translate(359.122391, 168.953825)"><g><path d="M 13.734375 0 L 10.15625 0 L 10.15625 -27.671875 L 0.375 -27.671875 L 0.375 -30.859375 L 23.515625 -30.859375 L 23.515625 -27.671875 L 13.734375 -27.671875 Z M 13.734375 0 "/></g></g></g><g fill="#1f93a9" fill-opacity="1"><g transform="translate(389.167374, 168.953825)"><g/></g></g><g fill="#1f93a9" fill-opacity="1"><g transform="translate(406.531219, 168.953825)"><g><path d="M 12.09375 -15.421875 L 20.328125 -30.859375 L 24.203125 -30.859375 L 13.90625 -11.96875 L 13.90625 0 L 10.28125 0 L 10.28125 -11.796875 L 0 -30.859375 L 3.921875 -30.859375 Z M 12.09375 -15.421875 "/></g></g></g><g fill="#1f93a9" fill-opacity="1"><g transform="translate(436.871603, 168.953825)"><g><path d="M 31.015625 -15.46875 C 31.015625 -10.53125 29.765625 -6.644531 27.265625 -3.8125 C 24.773438 -0.988281 21.304688 0.421875 16.859375 0.421875 C 12.316406 0.421875 8.8125 -0.960938 6.34375 -3.734375 C 3.875 -6.515625 2.640625 -10.441406 2.640625 -15.515625 C 2.640625 -20.535156 3.875 -24.425781 6.34375 -27.1875 C 8.820312 -29.957031 12.34375 -31.34375 16.90625 -31.34375 C 21.332031 -31.34375 24.789062 -29.929688 27.28125 -27.109375 C 29.769531 -24.296875 31.015625 -20.414062 31.015625 -15.46875 Z M 6.4375 -15.46875 C 6.4375 -11.289062 7.328125 -8.117188 9.109375 -5.953125 C 10.890625 -3.796875 13.472656 -2.71875 16.859375 -2.71875 C 20.273438 -2.71875 22.851562 -3.796875 24.59375 -5.953125 C 26.34375 -8.109375 27.21875 -11.28125 27.21875 -15.46875 C 27.21875 -19.613281 26.347656 -22.757812 24.609375 -24.90625 C 22.878906 -27.050781 20.3125 -28.125 16.90625 -28.125 C 13.488281 -28.125 10.890625 -27.046875 9.109375 -24.890625 C 7.328125 -22.734375 6.4375 -19.59375 6.4375 -15.46875 Z M 6.4375 -15.46875 "/></g></g></g><g fill="#1f93a9" fill-opacity="1"><g transform="translate(476.6648, 168.953825)"><g><path d="M 27.546875 -30.859375 L 27.546875 -10.890625 C 27.546875 -7.367188 26.484375 -4.601562 24.359375 -2.59375 C 22.234375 -0.582031 19.3125 0.421875 15.59375 0.421875 C 11.882812 0.421875 9.007812 -0.585938 6.96875 -2.609375 C 4.9375 -4.640625 3.921875 -7.425781 3.921875 -10.96875 L 3.921875 -30.859375 L 7.515625 -30.859375 L 7.515625 -10.71875 C 7.515625 -8.144531 8.21875 -6.164062 9.625 -4.78125 C 11.03125 -3.40625 13.097656 -2.71875 15.828125 -2.71875 C 18.429688 -2.71875 20.4375 -3.410156 21.84375 -4.796875 C 23.25 -6.179688 23.953125 -8.171875 23.953125 -10.765625 L 23.953125 -30.859375 Z M 27.546875 -30.859375 "/></g></g></g><g fill="#1f93a9" fill-opacity="1"><g transform="translate(514.263594, 168.953825)"><g><path d="M 7.828125 -12.828125 L 7.828125 0 L 4.234375 0 L 4.234375 -30.859375 L 12.703125 -30.859375 C 16.484375 -30.859375 19.273438 -30.128906 21.078125 -28.671875 C 22.890625 -27.222656 23.796875 -25.046875 23.796875 -22.140625 C 23.796875 -18.054688 21.726562 -15.296875 17.59375 -13.859375 L 25.984375 0 L 21.734375 0 L 14.265625 -12.828125 Z M 7.828125 -15.90625 L 12.75 -15.90625 C 15.28125 -15.90625 17.132812 -16.40625 18.3125 -17.40625 C 19.5 -18.414062 20.09375 -19.929688 20.09375 -21.953125 C 20.09375 -23.984375 19.488281 -25.445312 18.28125 -26.34375 C 17.082031 -27.25 15.15625 -27.703125 12.5 -27.703125 L 7.828125 -27.703125 Z M 7.828125 -15.90625 "/></g></g></g><g fill="#1f93a9" fill-opacity="1"><g transform="translate(547.114861, 168.953825)"><g><path d="M 21.65625 -8.203125 C 21.65625 -5.492188 20.671875 -3.378906 18.703125 -1.859375 C 16.734375 -0.335938 14.054688 0.421875 10.671875 0.421875 C 7.015625 0.421875 4.203125 -0.046875 2.234375 -0.984375 L 2.234375 -4.453125 C 3.503906 -3.921875 4.882812 -3.5 6.375 -3.1875 C 7.863281 -2.875 9.34375 -2.71875 10.8125 -2.71875 C 13.195312 -2.71875 14.992188 -3.171875 16.203125 -4.078125 C 17.410156 -4.984375 18.015625 -6.25 18.015625 -7.875 C 18.015625 -8.9375 17.800781 -9.804688 17.375 -10.484375 C 16.945312 -11.171875 16.226562 -11.800781 15.21875 -12.375 C 14.21875 -12.957031 12.691406 -13.613281 10.640625 -14.34375 C 7.765625 -15.375 5.710938 -16.59375 4.484375 -18 C 3.253906 -19.40625 2.640625 -21.242188 2.640625 -23.515625 C 2.640625 -25.890625 3.53125 -27.78125 5.3125 -29.1875 C 7.101562 -30.59375 9.46875 -31.296875 12.40625 -31.296875 C 15.476562 -31.296875 18.300781 -30.734375 20.875 -29.609375 L 19.75 -26.484375 C 17.207031 -27.554688 14.734375 -28.09375 12.328125 -28.09375 C 10.421875 -28.09375 8.929688 -27.679688 7.859375 -26.859375 C 6.796875 -26.046875 6.265625 -24.914062 6.265625 -23.46875 C 6.265625 -22.394531 6.460938 -21.515625 6.859375 -20.828125 C 7.253906 -20.148438 7.914062 -19.523438 8.84375 -18.953125 C 9.78125 -18.390625 11.210938 -17.765625 13.140625 -17.078125 C 16.378906 -15.921875 18.609375 -14.679688 19.828125 -13.359375 C 21.046875 -12.035156 21.65625 -10.316406 21.65625 -8.203125 Z M 21.65625 -8.203125 "/></g></g></g><g fill="#1f93a9" fill-opacity="1"><g transform="translate(576.969923, 168.953825)"><g><path d="M 21.4375 0 L 4.234375 0 L 4.234375 -30.859375 L 21.4375 -30.859375 L 21.4375 -27.671875 L 7.828125 -27.671875 L 7.828125 -17.71875 L 20.625 -17.71875 L 20.625 -14.5625 L 7.828125 -14.5625 L 7.828125 -3.203125 L 21.4375 -3.203125 Z M 21.4375 0 "/></g></g></g><g fill="#1f93a9" fill-opacity="1"><g transform="translate(607.141506, 168.953825)"><g><path d="M 4.234375 0 L 4.234375 -30.859375 L 7.828125 -30.859375 L 7.828125 -3.25 L 21.4375 -3.25 L 21.4375 0 Z M 4.234375 0 "/></g></g></g><g fill="#1f93a9" fill-opacity="1"><g transform="translate(635.709509, 168.953825)"><g><path d="M 7.828125 0 L 4.234375 0 L 4.234375 -30.859375 L 21.4375 -30.859375 L 21.4375 -27.671875 L 7.828125 -27.671875 L 7.828125 -16.375 L 20.625 -16.375 L 20.625 -13.1875 L 7.828125 -13.1875 Z M 7.828125 0 "/></g></g></g></svg>